<?xml version="1.0" encoding="UTF-8" standalone="no"?>
<svg
   width="218.39999"
   height="218.39999"
   viewBox="0 0 218.39999 218.39999"
   version="1.1"
   id="svg_photon"
   sodipodi:docname="org.mavensgroup.photon.svg"
   inkscape:version="1.4.4 (dcaf3e7d9e, 2026-05-05)"
   inkscape:export-filename="org.mavensgroup.photon.png"
   inkscape:export-xdpi="96"
   inkscape:export-ydpi="96"
   xmlns:inkscape="http://www.inkscape.org/namespaces/inkscape"
   xmlns:sodipodi="http://sodipodi.sourceforge.net/DTD/sodipodi-0.dtd"
   xmlns="http://www.w3.org/2000/svg"
   xmlns:svg="http://www.w3.org/2000/svg">
  <sodipodi:namedview
     id="namedview16"
     pagecolor="#ffffff"
     bordercolor="#000000"
     borderopacity="0.25"
     inkscape:showpageshadow="2"
     inkscape:pageopacity="0.0"
     inkscape:pagecheckerboard="0"
     inkscape:deskcolor="#d1d1d1"
     inkscape:zoom="3.5859375"
     inkscape:cx="109.3159"
     inkscape:cy="109.3159"
     inkscape:window-width="1920"
     inkscape:window-height="1168"
     inkscape:window-x="0"
     inkscape:window-y="0"
     inkscape:window-maximized="1"
     inkscape:current-layer="svg_photon" />
  <defs
     id="defs1">
    <!-- Aperture Iris Mask with transparent mechanical blade gaps -->
    <mask
       id="iris_mask">
      <rect
         x="0"
         y="0"
         width="256"
         height="256"
         fill="#ffffff"
         id="rect1" />
      <!-- Central Hexagonal Aperture Cutout -->
      <path
         d="m 162.64,128 -17.32,30 H 110.68 L 93.36,128 110.68,98 h 34.64 z"
         fill="#000000"
         id="path1" />
      <!-- Tangential Slit Cuts (3.6px matching Mavens suite signature stroke) -->
      <g
         stroke="#000000"
         stroke-width="3.6"
         stroke-linecap="round"
         id="g6">
        <line
           x1="162.64"
           y1="128"
           x2="113.68"
           y2="212.8"
           id="line1" />
        <line
           x1="145.32001"
           y1="158"
           x2="47.400002"
           y2="158"
           id="line2" />
        <line
           x1="110.68"
           y1="158"
           x2="61.720001"
           y2="73.199997"
           id="line3" />
        <line
           x1="93.360001"
           y1="128"
           x2="142.32001"
           y2="43.200001"
           id="line4" />
        <line
           x1="110.68"
           y1="98"
           x2="208.60001"
           y2="98"
           id="line5" />
        <line
           x1="145.32001"
           y1="98"
           x2="194.28"
           y2="182.8"
           id="line6" />
      </g>
    </mask>
  </defs>
  <!-- Material 3 / GNOME HIG duo-tone solar/amber circular base -->
  <!-- Outer Lens Barrel Rings (3.6px / 1.5px matching suite weight) -->
  <circle
     cx="109.2"
     cy="109.2"
     r="96"
     style="opacity:0.95;fill:none;stroke:#ffffff;stroke-width:3.6;stroke-linecap:round;stroke-linejoin:round"
     id="circle6" />
  <circle
     cx="109.2"
     cy="109.2"
     r="90"
     style="opacity:0.5;fill:none;stroke:#ffffff;stroke-width:1.5;stroke-linecap:round;stroke-linejoin:round"
     id="circle7" />
  <!-- Lens Index & Calibration Markings (Focal alignment ticks) -->
  <g
     id="index_marks"
     style="opacity:0.85;stroke:#ffffff;stroke-width:2.4;stroke-linecap:round"
     transform="translate(-18.8,-18.8)">
    <line
       x1="128"
       y1="20"
       x2="128"
       y2="28"
       id="line7" />
    <line
       x1="128"
       y1="228"
       x2="128"
       y2="236"
       id="line8" />
    <line
       x1="20"
       y1="128"
       x2="28"
       y2="128"
       id="line9" />
    <line
       x1="228"
       y1="128"
       x2="236"
       y2="128"
       id="line10" />
    <!-- Diagonal 45-degree ticks -->
    <line
       x1="51.799999"
       y1="51.799999"
       x2="57.400002"
       y2="57.400002"
       id="line11" />
    <line
       x1="204.2"
       y1="51.799999"
       x2="198.60001"
       y2="57.400002"
       id="line12" />
    <line
       x1="51.799999"
       y1="204.2"
       x2="57.400002"
       y2="198.60001"
       id="line13" />
    <line
       x1="204.2"
       y1="204.2"
       x2="198.60001"
       y2="198.60001"
       id="line14" />
  </g>
  <!-- Masked Pure White Aperture Iris Assembly (#ffffff) -->
  <circle
     cx="128"
     cy="128"
     r="86"
     fill="#ffffff"
     mask="url(#iris_mask)"
     id="circle14"
     transform="translate(-18.8,-18.8)" />
  <!-- Central Radiant Photon Light Emitter / Optical Spark -->
  <g
     id="photon_core"
     style="fill:#ffffff"
     transform="translate(-18.8,-18.8)">
    <!-- 4-point primary photon ray starburst -->
    <path
       d="m 128,111 q 0,17 -17,17 17,0 17,17 0,-17 17,-17 -17,0 -17,-17 z"
       id="path14" />
    <!-- Secondary diagonal photon flare (smaller 4-point star) -->
    <path
       d="m 128,119 q 0,9 -9,9 9,0 9,9 0,-9 9,-9 -9,0 -9,-9 z"
       transform="rotate(45,128,128)"
       opacity="0.85"
       id="path15" />
    <!-- Center focal node -->
    <circle
       cx="128"
       cy="128"
       r="2.8"
       id="circle15" />
  </g>
  <!-- Optical Lens Coating Reflection Arc (3.6px stroke) -->
  <path
     d="m 49.2,53.2 a 78,78 0 0 1 88,-20"
     style="opacity:0.85;fill:none;stroke:#ffffff;stroke-width:3.6;stroke-linecap:round"
     id="path16" />
  <circle
     cx="149.2"
     cy="149.2"
     r="3.2"
     style="opacity:0.85;fill:#ffffff"
     id="circle16" />
</svg>
